<?xml version="1.0" encoding="UTF-8"?>
<svg width="177px" height="34px" viewBox="0 0 177 34" version="1.1" xmlns="http://www.w3.org/2000/svg" xmlns:xlink="http://www.w3.org/1999/xlink">
    <!-- Generator: Sketch 62 (91390) - https://sketch.com -->
    <title>logo copy</title>
    <desc>Created with Sketch.</desc>
    <g id="Page-1" stroke="none" stroke-width="1" fill="none" fill-rule="evenodd">
        <g id="Artboard" transform="translate(-52.000000, -47.000000)">
            <g id="logo-copy" transform="translate(53.000000, 49.000000)">
                <path d="M38.1875,2.453125 L46.234375,2.453125 C50.46875,2.453125 53.453125,5.421875 53.453125,9.6875 C53.453125,13.96875 50.4375,16.953125 46.203125,16.953125 L41,16.953125 L41,25 L38.1875,25 L38.1875,2.453125 Z M41,4.953125 L41,14.453125 L45.5,14.453125 C48.71875,14.453125 50.5625,12.6875 50.5625,9.6875 C50.5625,6.703125 48.734375,4.953125 45.5,4.953125 L41,4.953125 Z M58.0277778,25 L58.0277778,8.75 L60.5902778,8.75 L60.5902778,11.40625 L60.6527778,11.40625 C61.1371528,9.6875 62.6840278,8.59375 64.5902778,8.59375 C65.0590278,8.59375 65.4496528,8.640625 65.6840278,8.6875 L65.6840278,11.34375 C65.4652778,11.265625 64.8871528,11.1875 64.2309028,11.1875 C62.1215278,11.1875 60.7465278,12.703125 60.7465278,15 L60.7465278,25 L58.0277778,25 Z M75.6180556,25.15625 C71.0243056,25.15625 68.0868056,21.921875 68.0868056,16.875 C68.0868056,11.8125 71.0243056,8.59375 75.6180556,8.59375 C80.1961806,8.59375 83.1336806,11.8125 83.1336806,16.875 C83.1336806,21.921875 80.1961806,25.15625 75.6180556,25.15625 Z M75.6180556,22.765625 C78.6024306,22.765625 80.3680556,20.578125 80.3680556,16.875 C80.3680556,13.171875 78.6024306,10.984375 75.6180556,10.984375 C72.6180556,10.984375 70.8524306,13.1875 70.8524306,16.875 C70.8524306,20.578125 72.6336806,22.765625 75.6180556,22.765625 Z M95.5364583,8.59375 C99.6770833,8.59375 102.489583,11.90625 102.489583,16.875 C102.489583,21.84375 99.6927083,25.15625 95.5989583,25.15625 C93.2864583,25.15625 91.4427083,24.140625 90.4270833,22.359375 L90.3645833,22.359375 L90.3645833,30.421875 L87.6458333,30.421875 L87.6458333,8.75 L90.2239583,8.75 L90.2239583,11.390625 L90.2864583,11.390625 C91.2395833,9.703125 93.2864583,8.59375 95.5364583,8.59375 Z M95.0052083,22.75 C97.8333333,22.75 99.7083333,20.4375 99.7083333,16.875 C99.7083333,13.328125 97.8333333,11 95.0052083,11 C92.2395833,11 90.3489583,13.390625 90.3489583,16.875 C90.3489583,20.375 92.2395833,22.75 95.0052083,22.75 Z M107.142361,25 L107.142361,2.453125 L109.861111,2.453125 L109.861111,11.40625 L109.923611,11.40625 C110.923611,9.546875 112.595486,8.59375 115.079861,8.59375 C118.642361,8.59375 120.798611,11 120.798611,14.625 L120.798611,25 L118.079861,25 L118.079861,15.125 C118.079861,12.546875 116.782986,11 114.236111,11 C111.532986,11 109.861111,12.84375 109.861111,15.65625 L109.861111,25 L107.142361,25 Z M132.545139,10.953125 C130.029514,10.953125 128.217014,12.78125 128.045139,15.484375 L136.873264,15.484375 C136.810764,12.765625 135.076389,10.953125 132.545139,10.953125 Z M136.810764,20.34375 L139.482639,20.34375 C139.029514,23.15625 136.201389,25.15625 132.717014,25.15625 C128.123264,25.15625 125.232639,21.984375 125.232639,16.9375 C125.232639,11.890625 128.138889,8.59375 132.592014,8.59375 C136.951389,8.59375 139.685764,11.65625 139.685764,16.578125 L139.685764,17.609375 L128.029514,17.609375 L128.029514,17.765625 C128.029514,20.8125 129.920139,22.796875 132.779514,22.796875 C134.779514,22.796875 136.357639,21.84375 136.810764,20.34375 Z M157.697917,14.078125 L155.041667,14.078125 C154.713542,12.34375 153.276042,10.984375 150.869792,10.984375 C148.072917,10.984375 146.166667,13.3125 146.166667,16.875 C146.166667,20.53125 148.104167,22.765625 150.901042,22.765625 C153.135417,22.765625 154.619792,21.703125 155.057292,19.765625 L157.729167,19.765625 C157.291667,22.953125 154.619792,25.15625 150.885417,25.15625 C146.401042,25.15625 143.401042,21.984375 143.401042,16.875 C143.401042,11.875 146.385417,8.59375 150.854167,8.59375 C154.901042,8.59375 157.369792,11.1875 157.697917,14.078125 Z M163.350694,31.078125 C163.022569,31.078125 162.475694,31.046875 162.178819,30.984375 L162.178819,28.703125 C162.475694,28.765625 162.897569,28.78125 163.241319,28.78125 C164.756944,28.78125 165.600694,28.046875 166.225694,26.15625 L166.600694,25.015625 L160.600694,8.75 L163.506944,8.75 L168.006944,22.28125 L168.053819,22.28125 L172.553819,8.75 L175.413194,8.75 L169.022569,26.140625 C167.631944,29.9375 166.288194,31.078125 163.350694,31.078125 Z" id="Prophecy.io" fill="#FFFFFF" fill-rule="nonzero"></path>
                <g id="logo_img" stroke-linecap="square" stroke-width="3.33658537">
                    <line x1="1.38059865" y1="10.5645933" x2="1.38059865" y2="23.7703349" id="Line" stroke="#00CBD5"></line>
                    <line x1="7.82339237" y1="0" x2="7.82339237" y2="23.7703349" id="Line-Copy-6" stroke="#AF81CF"></line>
                    <line x1="14.2661861" y1="14.5263158" x2="14.2661861" y2="23.7703349" id="Line-Copy-7" stroke="#049DF8"></line>
                    <line x1="20.7089798" y1="9.24401914" x2="20.7089798" y2="23.7703349" id="Line-Copy-8" stroke="#EF8F0A"></line>
                </g>
            </g>
        </g>
    </g>
</svg>